<?xml version="1.0" encoding="UTF-8"?>
<!DOCTYPE svg PUBLIC "-//W3C//DTD SVG 1.1//EN" "http://www.w3.org/Graphics/SVG/1.1/DTD/svg11.dtd">
<!-- Creator: CorelDRAW X7 -->
<svg xmlns="http://www.w3.org/2000/svg" xml:space="preserve" width="135.465mm" height="65.9135mm" version="1.1" style="shape-rendering:geometricPrecision; text-rendering:geometricPrecision; image-rendering:optimizeQuality; fill-rule:evenodd; clip-rule:evenodd"
viewBox="0 0 13547 6591"
 xmlns:xlink="http://www.w3.org/1999/xlink">
 <defs>
  <style type="text/css">
   <![CDATA[
    .fil0 {fill:#606062}
   ]]>
  </style>
 </defs>
 <g id="Layer_x0020_1">
  <metadata id="CorelCorpID_0Corel-Layer"/>
  <g id="_2586722578176">
   <path class="fil0" d="M12671 1041c-598,-669 -1435,-1038 -2359,-1041 -4,0 -9,0 -13,0 -1853,0 -2955,1169 -3864,2391 -255,312 -654,601 -1161,314 -313,-176 -424,-573 -249,-886 130,-230 423,-311 653,-182 79,44 136,117 161,204 25,88 13,181 -32,260 -29,53 -77,87 -130,104 -33,-118 -146,-199 -271,-181 -131,20 -220,139 -207,268 -41,98 -7,211 87,263 313,175 711,65 887,-248 99,-177 123,-383 69,-579 -54,-196 -182,-359 -360,-458 -431,-244 -981,-90 -1225,343 -288,514 -104,1169 409,1458 201,113 409,169 613,169 53,0 103,-14 154,-21 -181,253 -361,503 -549,739 -432,544 -803,998 -1163,1349 -45,4 -89,19 -125,52 -748,701 -1525,798 -2189,269 -514,-410 -600,-1162 -191,-1676 315,-394 890,-459 1283,-145 143,114 234,276 255,459 21,183 -32,362 -146,507 -76,97 -185,154 -304,177 12,-37 24,-76 24,-118 0,-222 -180,-402 -403,-402 -222,0 -403,179 -403,402 0,58 13,113 35,163 -7,70 16,141 75,188 194,155 437,224 683,196 247,-29 467,-151 621,-344 186,-231 268,-521 234,-816 -33,-295 -178,-557 -410,-741 -575,-458 -1414,-363 -1873,211 -519,655 -442,1587 144,2157 -242,-139 -458,-326 -627,-563 -322,-450 -450,-1021 -353,-1566 155,-861 982,-1436 1844,-1282 113,20 224,-56 244,-170 21,-114 -55,-223 -170,-243 -1092,-197 -2135,532 -2331,1620 -117,657 37,1344 425,1885 379,528 934,873 1566,971 1585,240 2511,-927 3584,-2280 6,-6 11,-13 16,-20 1,-1 2,-1 3,-2 275,-306 711,-600 1217,-265 298,199 381,604 184,902 -145,218 -443,278 -663,132 -77,-51 -128,-128 -146,-217 -18,-88 0,-180 50,-253 37,-56 96,-89 157,-99 30,115 135,197 256,186 136,-10 236,-131 225,-266 0,-2 -1,-3 -2,-5 24,-85 -6,-180 -83,-231 -299,-198 -703,-117 -902,181 -112,169 -152,371 -112,570 40,200 155,372 325,485 153,100 326,150 497,150 291,0 577,-141 749,-400 325,-490 190,-1155 -301,-1483 -272,-180 -560,-243 -847,-201 29,-42 59,-82 89,-124 149,-210 299,-421 453,-628 8,-9 15,-14 22,-23 4,-4 5,-11 8,-16 863,-1153 1849,-2170 3490,-2170 4,0 9,0 12,0 802,2 1530,322 2046,901 580,648 854,1566 750,2517 -76,694 -417,1317 -961,1755 -503,404 -1124,594 -1762,563 -387,-66 -688,-237 -887,-519 -238,-335 -316,-806 -213,-1292 66,-311 250,-579 516,-752 268,-174 586,-231 898,-167 238,51 444,192 576,396 132,204 178,447 127,686 -38,179 -142,332 -295,433 -154,100 -339,133 -519,96 -117,-25 -214,-93 -288,-185 176,-46 306,-200 304,-389 -2,-221 -185,-399 -408,-396 -118,2 -221,56 -294,139 -57,27 -102,75 -117,142 -52,242 -6,490 128,697 137,209 344,352 587,404 292,61 588,7 837,-155 247,-162 416,-410 476,-698 75,-348 9,-703 -186,-1003 -194,-299 -493,-504 -841,-577 -422,-89 -853,-9 -1214,225 -361,235 -610,596 -699,1018 -94,443 -61,881 85,1254 -35,-39 -77,-72 -109,-113 -343,-425 -499,-961 -439,-1505 96,-875 887,-1508 1761,-1415 118,16 219,-71 232,-186 12,-116 -71,-219 -187,-232 -1104,-121 -2103,682 -2224,1787 -72,656 117,1301 529,1814 413,515 1002,838 1657,908 66,8 132,8 197,11 10,2 19,6 29,7 9,1 18,1 27,1 4,0 7,-3 11,-4 23,1 48,4 72,4 688,0 1349,-231 1893,-668 633,-508 1029,-1231 1116,-2037 121,-1072 -191,-2109 -850,-2845z"/>
  </g>
  <g id="_2586722577024">
  </g>
  <g id="_2586722577952">
  </g>
  <g id="_2586722578592">
  </g>
  <g id="_2586722577664">
  </g>
  <g id="_2586722578656">
  </g>
  <g id="_2586722578016">
  </g>
  <g id="_2586722579552">
  </g>
  <g id="_2586722579744">
  </g>
  <g id="_2586722579072">
  </g>
  <g id="_2586722579296">
  </g>
  <g id="_2586722579616">
  </g>
  <g id="_2586722579808">
  </g>
  <g id="_2586722580032">
  </g>
  <g id="_2586722580224">
  </g>
  <g id="_2586722582976">
  </g>
 </g>
</svg>
