<?xml version="1.0" encoding="UTF-8"?>
<!DOCTYPE svg PUBLIC "-//W3C//DTD SVG 1.1//EN" "http://www.w3.org/Graphics/SVG/1.1/DTD/svg11.dtd">
<!-- Creator: CorelDRAW X7 -->
<svg xmlns="http://www.w3.org/2000/svg" xml:space="preserve" width="107.943mm" height="20.3922mm" version="1.1" style="shape-rendering:geometricPrecision; text-rendering:geometricPrecision; image-rendering:optimizeQuality; fill-rule:evenodd; clip-rule:evenodd"
viewBox="0 0 5027 950"
 xmlns:xlink="http://www.w3.org/1999/xlink">
 <defs>
  <style type="text/css">
   <![CDATA[
    .fil0 {fill:#333333;fill-rule:nonzero}
   ]]>
  </style>
 </defs>
 <g id="Layer_x0020_1">
  <metadata id="CorelCorpID_0Corel-Layer"/>
  <g id="_2144159548912">
   <path class="fil0" d="M5025 373c-16,-125 -109,-217 -221,-264 -127,-54 -282,-54 -396,31 -34,26 -63,59 -83,96 -19,6 -37,14 -54,22 -87,40 -167,96 -260,120 -91,24 -245,-5 -217,-133 2,-11 -14,-20 -20,-8 -58,119 65,209 175,209 129,1 234,-75 346,-127 -8,44 -5,90 12,135 42,110 176,176 288,129 111,-46 158,-198 78,-293 -79,-93 -199,-97 -307,-67 1,-2 2,-4 3,-6 116,-151 343,-144 491,-46 170,113 169,326 51,479 -215,279 -612,245 -878,67 -255,-170 -402,-479 -721,-545 -30,-7 -61,-12 -94,-15 -159,-238 -538,-180 -720,5 -217,221 -87,558 159,692 255,139 629,138 839,-82 44,-46 76,-99 99,-158 3,-9 -11,-15 -16,-6 -162,292 -576,338 -858,205 -139,-66 -252,-189 -268,-347 -16,-165 94,-292 237,-357 141,-64 322,-66 438,45 -88,2 -176,22 -242,74 -98,77 -119,213 -37,310 84,100 229,97 327,20 108,-86 125,-240 66,-360 -1,-2 -2,-4 -4,-6 88,11 173,40 240,78 131,75 228,193 331,299 102,105 216,197 351,256 237,104 526,90 721,-94 95,-91 160,-224 144,-358zm-618 -94l0 0c81,-19 179,-6 228,68 44,69 15,159 -53,200 -80,48 -183,8 -230,-66 -34,-53 -40,-117 -25,-176 26,-11 53,-20 80,-26zm-1366 276l0 0c-77,12 -152,-31 -185,-101 -42,-89 15,-179 95,-222 60,-32 132,-46 206,-46 96,126 60,340 -116,369z"/>
   <path class="fil0" d="M147 731c194,184 483,198 720,94 135,-59 249,-151 351,-256 103,-106 200,-224 331,-299 67,-38 152,-67 240,-78 -2,2 -3,4 -4,6 -59,120 -42,274 66,360 98,77 243,80 327,-20 82,-97 61,-233 -37,-310 -66,-52 -153,-72 -242,-74 116,-111 297,-109 438,-45 143,65 254,192 237,357 -16,158 -129,281 -268,347 -282,133 -696,87 -858,-205 -4,-9 -19,-3 -16,6 23,59 55,112 99,158 210,220 584,221 840,82 246,-134 375,-471 158,-692 -182,-185 -561,-243 -720,-5 -33,3 -64,8 -94,15 -319,66 -466,375 -721,545 -266,178 -663,212 -878,-67 -118,-153 -119,-366 52,-479 147,-98 375,-105 490,46 1,2 2,4 4,6 -109,-30 -229,-26 -308,67 -80,95 -33,247 78,293 112,47 246,-19 288,-129 17,-45 20,-91 12,-135 112,52 217,128 346,127 110,0 233,-90 175,-209 -6,-12 -22,-3 -20,8 28,128 -126,157 -217,133 -93,-24 -173,-80 -260,-120 -17,-8 -35,-16 -54,-22 -20,-37 -49,-70 -83,-96 -114,-85 -269,-85 -396,-31 -112,47 -205,139 -220,264 -17,134 48,267 144,358zm553 -426l0 0c15,59 9,123 -25,176 -47,74 -150,114 -230,66 -68,-41 -97,-131 -53,-200 49,-74 147,-87 228,-68 27,6 54,15 80,26zm1170 -119l0 0c74,0 146,14 206,46 80,43 137,133 95,222 -33,70 -108,113 -185,101 -176,-29 -212,-243 -116,-369z"/>
  </g>
 </g>
</svg>
