<?xml version="1.0" encoding="UTF-8"?>
<!DOCTYPE svg PUBLIC "-//W3C//DTD SVG 1.1//EN" "http://www.w3.org/Graphics/SVG/1.1/DTD/svg11.dtd">
<!-- Creator: CorelDRAW X7 -->
<svg xmlns="http://www.w3.org/2000/svg" xml:space="preserve" width="104.427mm" height="16.9078mm" version="1.1" style="shape-rendering:geometricPrecision; text-rendering:geometricPrecision; image-rendering:optimizeQuality; fill-rule:evenodd; clip-rule:evenodd"
viewBox="0 0 4777 774"
 xmlns:xlink="http://www.w3.org/1999/xlink">
 <defs>
  <style type="text/css">
   <![CDATA[
    .fil0 {fill:#333333;fill-rule:nonzero}
   ]]>
  </style>
 </defs>
 <g id="Layer_x0020_1">
  <metadata id="CorelCorpID_0Corel-Layer"/>
  <g id="_2144156038192">
   <g>
    <path class="fil0" d="M4773 125c-21,-102 -124,-138 -217,-121 -105,19 -211,118 -162,232 35,79 150,96 196,19 3,-7 -6,-12 -10,-6 -47,71 -153,46 -177,-31 -22,-73 23,-143 87,-176 59,-31 139,-38 199,-4 67,38 78,119 59,187 -66,235 -353,324 -568,329 -483,10 -912,-296 -1394,-285 -219,6 -464,96 -561,307 -4,9 7,15 13,8 195,-263 525,-286 823,-223 293,63 569,197 867,235 247,32 539,-6 727,-185 74,-71 140,-180 118,-286z"/>
    <path class="fil0" d="M3944 704c-322,127 -619,-94 -907,-214 -127,-52 -265,-87 -403,-69 -108,13 -230,57 -295,150 -1,3 2,6 5,4 55,-40 105,-71 171,-91 65,-19 132,-21 199,-16 153,10 296,75 432,140 237,113 546,247 801,103 3,-2 1,-8 -3,-7z"/>
    <path class="fil0" d="M4319 218c-78,127 -206,188 -353,200 -169,15 -327,-53 -490,-82 -3,-1 -5,3 -2,5 155,92 348,154 530,128 135,-19 282,-112 326,-247 2,-6 -7,-9 -11,-4z"/>
   </g>
   <g>
    <path class="fil0" d="M4 125c21,-102 124,-138 218,-121 104,19 210,118 161,232 -34,79 -149,96 -195,19 -4,-7 5,-12 9,-6 47,71 154,46 177,-31 22,-73 -23,-143 -87,-176 -59,-31 -139,-38 -199,-4 -67,38 -77,119 -58,187 65,235 352,324 567,329 484,10 912,-296 1394,-285 219,6 464,96 561,307 4,9 -7,15 -13,8 -195,-263 -524,-286 -822,-223 -293,63 -569,197 -867,235 -247,32 -540,-6 -727,-185 -74,-71 -141,-180 -119,-286z"/>
    <path class="fil0" d="M833 704c323,127 619,-94 908,-214 127,-52 265,-87 403,-69 108,13 229,57 294,150 2,3 -2,6 -4,4 -55,-40 -105,-71 -172,-91 -64,-19 -132,-21 -198,-16 -154,10 -296,75 -433,140 -236,113 -546,247 -800,103 -4,-2 -1,-8 2,-7z"/>
    <path class="fil0" d="M458 218c78,127 206,188 353,200 169,15 327,-53 490,-82 3,-1 5,3 2,5 -155,92 -348,154 -530,128 -135,-19 -282,-112 -325,-247 -2,-6 7,-9 10,-4z"/>
   </g>
  </g>
 </g>
</svg>
